Coordinates
version=1
nRows=26
nColumns=24
inDegrees=yes

Units are S.I. units (second, meters, Newtons, ...)
Angles are in degrees.

endheader
time	pelvis_tilt	pelvis_list	pelvis_rotation	pelvis_tx	pelvis_ty	pelvis_tz	hip_flexion_r	hip_adduction_r	hip_rotation_r	knee_angle_r	ankle_angle_r	subtalar_angle_r	mtp_angle_r	hip_flexion_l	hip_adduction_l	hip_rotation_l	knee_angle_l	ankle_angle_l	subtalar_angle_l	mtp_angle_l	lumbar_extension	lumbar_bending	lumbar_rotation
      2.65000000	     -6.22836930	     -0.05385892	    361.43968157	      0.19338552	      1.38860862	     -1.00843875	     14.48704128	      3.29340301	      6.84477954	    -12.69874241	     -2.23678302	    -10.20768633	      3.26085209	     17.08894381	      3.18694670	      4.54537576	    -54.56241305	     -4.16330039	     11.14637296	     45.35925249	     -7.27880741	      6.55997165	     10.44596183
      2.65500000	     -6.32086220	      0.10112948	    361.37405281	      0.19820340	      1.38904083	     -1.00811101	     14.21221921	      3.15388024	      6.89462856	    -12.57278417	     -1.96759023	    -10.05329105	      3.27322983	     17.82368633	      3.27401875	      4.34834165	    -54.61169117	     -3.67382196	     11.20487446	     44.84228135	     -7.22289267	      6.33006789	     10.52224092
      2.66000000	     -6.37983691	      0.24176024	    361.31013632	      0.20299122	      1.38947043	     -1.00779431	     13.90210593	      3.03224830	      6.95186070	    -12.44340162	     -1.70430383	     -9.94203682	      3.25308874	     18.50916404	      3.34439554	      4.15757847	    -54.60415294	     -3.17820487	     11.22725603	     44.22317428	     -7.21469671	      6.12574781	     10.56778166
      2.66500000	     -6.47481979	      0.38212423	    361.24717203	      0.20776723	      1.38985061	     -1.00749068	     13.64147070	      2.91101260	      7.02759951	    -12.33001061	     -1.46852052	     -9.85475928	      3.23962750	     19.22112721	      3.41901451	      3.98015803	    -54.53280071	     -2.71432161	     11.20321197	     43.67019147	     -7.16206019	      5.91942234	     10.62620438
      2.67000000	     -6.56329584	      0.51714046	    361.18554803	      0.21252580	      1.39020625	     -1.00719253	     13.38332632	      2.79843555	      7.09945743	    -12.23156206	     -1.23484047	     -9.80768363	      3.21985455	     19.90927394	      3.48639885	      3.80755230	    -54.39813370	     -2.25571902	     11.15944230	     43.09350858	     -7.11692967	      5.71791386	     10.68747165
      2.67500000	     -6.63216501	      0.65313182	    361.12635516	      0.21726774	      1.39056213	     -1.00691662	     13.10815573	      2.68456657	      7.17992378	    -12.13760010	     -1.01626959	     -9.78516661	      3.21068136	     20.55410783	      3.55876134	      3.64887994	    -54.18799393	     -1.83055624	     11.06388654	     42.56072602	     -7.09443758	      5.51541016	     10.74763019
      2.68000000	     -6.73869580	      0.77918278	    361.07554644	      0.22199431	      1.39084505	     -1.00665708	     12.88769057	      2.58178386	      7.26137335	    -12.06730641	     -0.80732570	     -9.79736516	      3.19708393	     21.22810086	      3.62576682	      3.50922893	    -53.92583887	     -1.41798769	     10.94680180	     42.03852257	     -7.03041334	      5.32247444	     10.79999578
      2.68500000	     -6.83176513	      0.91005014	    361.02776381	      0.22671418	      1.39113256	     -1.00642430	     12.65524324	      2.47243131	      7.35064580	    -12.00104054	     -0.60517097	     -9.82248541	      3.19020147	     21.86107704	      3.70322712	      3.38558902	    -53.58498728	     -1.03729952	     10.78922797	     41.53348164	     -6.98131603	      5.12964621	     10.85167426
      2.69000000	     -6.92559924	      1.03335441	    360.98989192	      0.23142006	      1.39138295	     -1.00621881	     12.42904544	      2.36924555	      7.43297670	    -11.94337665	     -0.40798243	     -9.87184603	      3.18481030	     22.47660792	      3.77812692	      3.28079237	    -53.18240935	     -0.67482814	     10.60898659	     41.04505266	     -6.93235700	      4.94535037	     10.89403916
      2.69500000	     -7.03161159	      1.16189708	    360.95412924	      0.23611292	      1.39160287	     -1.00602074	     12.21910191	      2.26084936	      7.54962002	    -11.89104959	     -0.20985027	     -9.93472657	      3.18989233	     23.08450392	      3.86273912	      3.19303814	    -52.71009169	     -0.37224032	     10.39014937	     40.65451803	     -6.87373513	      4.76230138	     10.89290954
      2.70000000	     -7.12906734	      1.27101561	    360.93558536	      0.24080093	      1.39179954	     -1.00589165	     12.00450355	      2.16507538	      7.59187646	    -11.84632251	     -0.02659141	     -9.99951135	      3.17370328	     23.66377866	      3.93755045	      3.12891680	    -52.18775247	     -0.02696385	     10.17859242	     40.09171032	     -6.81451148	      4.59161286	     10.95435470
      2.70500000	     -7.20971961	      1.41557753	    360.91365787	      0.24549932	      1.39200521	     -1.00571378	     11.76538293	      2.03503274	      7.67482638	    -11.79181275	      0.17546319	    -10.08254294	      3.18963879	     24.19125715	      4.04015963	      3.05503781	    -51.56751694	      0.20284313	      9.93836499	     39.78541087	     -6.78515634	      4.38923529	     10.92419134
      2.71000000	     -7.30770255	      1.53500794	    360.90090754	      0.25018221	      1.39215990	     -1.00562988	     11.54819077	      1.92311428	      7.73585829	    -11.74089853	      0.36377490	    -10.15665582	      3.19928259	     24.72270327	      4.13437197	      3.01593383	    -50.90486666	      0.43865488	      9.63566669	     39.35678443	     -6.73093470	      4.21782159	     10.94965201
      2.71500000	     -7.40713867	      1.64103260	    360.89494496	      0.25486753	      1.39228632	     -1.00556619	     11.33270262	      1.82268350	      7.80969726	    -11.69267152	      0.55303783	    -10.20215674	      3.21261986	     25.23431921	      4.22052754	      3.00535709	    -50.18732095	      0.66605214	      9.35457500	     38.85658470	     -6.66796089	      4.05543543	     10.97079237
      2.72000000	     -7.50710644	      1.73299481	    360.89316496	      0.25953756	      1.39237133	     -1.00556747	     11.11622723	      1.72983163	      7.82973311	    -11.63537141	      0.73976655	    -10.23070243	      3.22136125	     25.73209574	      4.29590430	      2.99872495	    -49.43282370	      0.94114812	      9.10845015	     38.22514454	     -6.61565035	      3.92573083	     11.01068621
      2.72500000	     -7.59607998	      1.85294789	    360.88629490	      0.26422946	      1.39246279	     -1.00553313	     10.88288268	      1.61089989	      7.90572237	    -11.57346059	      0.93409118	    -10.28580879	      3.24555437	     26.18150596	      4.39556790	      2.99588169	    -48.58261562	      1.08806897	      8.82470720	     37.82079107	     -6.57265218	      3.76264975	     10.99712083
      2.73000000	     -7.66506762	      1.95642272	    360.88504184	      0.26891171	      1.39253649	     -1.00553903	     10.63039315	      1.50400183	      7.91994923	    -11.51352553	      1.12750687	    -10.31727631	      3.27742916	     26.58794167	      4.48058694	      3.00008884	    -47.68397962	      1.25906613	      8.50996895	     37.31719756	     -6.55276654	      3.61375833	     11.01086583
      2.73500000	     -7.76162725	      2.07223389	    360.87684819	      0.27361454	      1.39255972	     -1.00550911	     10.40789371	      1.38842645	      7.97473107	    -11.45644944	      1.32993212	    -10.37860835	      3.31415502	     26.99830532	      4.56821731	      2.99801484	    -46.71579960	      1.33192191	      8.22270676	     36.95999463	     -6.49990414	      3.45188059	     10.98993368
      2.74000000	     -7.82824533	      2.16276631	    360.87872531	      0.27831476	      1.39258222	     -1.00559349	     10.14719091	      1.28676045	      7.98579684	    -11.38612902	      1.52136278	    -10.36916338	      3.36883344	     27.35205570	      4.65201604	      3.04129861	    -45.70546871	      1.47804438	      7.87902335	     36.36468853	     -6.47797155	      3.32217569	     11.03081261
      2.74500000	     -7.90743148	      2.26865583	    360.86494599	      0.28301055	      1.39256374	     -1.00562224	      9.90541919	      1.17675787	      8.06018404	    -11.32539788	      1.71614307	    -10.40000768	      3.41421162	     27.69185664	      4.73613469	      3.07317623	    -44.62158909	      1.51601137	      7.55279630	     35.94820997	     -6.45165201	      3.18183285	     11.01984598
      2.75000000	     -7.97793644	      2.35564283	    360.86334933	      0.28773648	      1.39251674	     -1.00569175	      9.65126560	      1.08126918	      8.05917692	    -11.26176854	      1.91528782	    -10.41049110	      3.47294471	     27.99676126	      4.80527087	      3.11686197	    -43.49090197	      1.58389315	      7.22038773	     35.42545207	     -6.42544065	      3.04925163	     11.04734485
      2.75500000	     -8.05377174	      2.45317367	    360.84289002	      0.29244105	      1.39244102	     -1.00574552	      9.40825077	      0.97897046	      8.12618507	    -11.20396086	      2.11006447	    -10.42921541	      3.52466365	     28.27848108	      4.87704061	      3.16247645	    -42.28839765	      1.57416992	      6.87214600	     35.00252826	     -6.40049494	      2.91879965	     11.05996716
      2.76000000	     -8.10787106	      2.54209544	    360.82882237	      0.29717329	      1.39235411	     -1.00582190	      9.13860797	      0.88199250	      8.13580121	    -11.14366606	      2.31604807	    -10.43194247	      3.58458366	     28.50681516	      4.94016841	      3.21383561	    -41.02876879	      1.56453910	      6.51899227	     34.52368035	     -6.39489356	      2.78974687	     11.08768560
      2.76500000	     -8.18808627	      2.62246176	    360.80511576	      0.30188491	      1.39220089	     -1.00589884	      8.90554869	      0.79770498	      8.19700233	    -11.09634060	      2.51462726	    -10.44730062	      3.63408102	     28.74250917	      4.99094229	      3.28045452	    -39.71646721	      1.50277760	      6.17073077	     34.10611768	     -6.36841808	      2.67588569	     11.10466510
      2.77000000	     -8.25237019	      2.71090768	    360.77622933	      0.30663798	      1.39204480	     -1.00597647	      8.65164291	      0.70345556	      8.23439133	    -11.04617829	      2.72303803	    -10.44599961	      3.68410162	     28.92224944	      5.04443459	      3.34516227	    -38.33189202	      1.41919957	      5.80662708	     33.67173663	     -6.35297180	      2.55031883	     11.14038112
      2.77500000	     -8.32655798	      2.79093451	    360.74287155	      0.31138068	      1.39184543	     -1.00605682	      8.41481944	      0.61993768	      8.27721763	    -11.00625084	      2.93187568	    -10.44904599	      3.72929764	     29.08778046	      5.08396455	      3.41437073	    -36.89227202	      1.30165389	      5.45108775	     33.26129086	     -6.32964350	      2.43208885	     11.17925315
